<mxfile host="app.diagrams.net" agent="Mozilla/5.0 (Windows NT 10.0; Win64; x64) AppleWebKit/537.36 (KHTML, like Gecko) Chrome/134.0.0.0 Safari/537.36" version="26.1.1">
  <diagram name="Page-1" id="34JUzYhVnPe0AcSSoMrx">
    <mxGraphModel dx="2062" dy="614" grid="1" gridSize="10" guides="1" tooltips="1" connect="1" arrows="1" fold="1" page="1" pageScale="1" pageWidth="827" pageHeight="1169" math="0" shadow="0">
      <root>
        <mxCell id="0" />
        <mxCell id="1" parent="0" />
        <mxCell id="P_wVOb6cz1hJk3Y5YEZU-1" value="Korisnik" style="whiteSpace=wrap;html=1;align=center;" parent="1" vertex="1">
          <mxGeometry x="150" y="210" width="100" height="40" as="geometry" />
        </mxCell>
        <mxCell id="P_wVOb6cz1hJk3Y5YEZU-2" value="Komentar" style="whiteSpace=wrap;html=1;align=center;" parent="1" vertex="1">
          <mxGeometry x="150" y="490" width="100" height="40" as="geometry" />
        </mxCell>
        <mxCell id="P_wVOb6cz1hJk3Y5YEZU-3" value="Blogpost" style="whiteSpace=wrap;html=1;align=center;" parent="1" vertex="1">
          <mxGeometry x="740" y="210" width="100" height="40" as="geometry" />
        </mxCell>
        <mxCell id="P_wVOb6cz1hJk3Y5YEZU-4" value="" style="endArrow=none;html=1;rounded=0;exitX=0;exitY=1;exitDx=0;exitDy=0;" parent="1" source="P_wVOb6cz1hJk3Y5YEZU-1" target="P_wVOb6cz1hJk3Y5YEZU-5" edge="1">
          <mxGeometry relative="1" as="geometry">
            <mxPoint x="330" y="270" as="sourcePoint" />
            <mxPoint x="110" y="310" as="targetPoint" />
          </mxGeometry>
        </mxCell>
        <mxCell id="P_wVOb6cz1hJk3Y5YEZU-5" value="id" style="ellipse;whiteSpace=wrap;html=1;align=center;fontStyle=4;" parent="1" vertex="1">
          <mxGeometry x="-30" y="230" width="100" height="40" as="geometry" />
        </mxCell>
        <mxCell id="P_wVOb6cz1hJk3Y5YEZU-6" value="" style="endArrow=none;html=1;rounded=0;exitX=0.25;exitY=1;exitDx=0;exitDy=0;" parent="1" source="P_wVOb6cz1hJk3Y5YEZU-1" target="P_wVOb6cz1hJk3Y5YEZU-7" edge="1">
          <mxGeometry relative="1" as="geometry">
            <mxPoint x="330" y="270" as="sourcePoint" />
            <mxPoint x="200" y="340" as="targetPoint" />
          </mxGeometry>
        </mxCell>
        <mxCell id="P_wVOb6cz1hJk3Y5YEZU-7" value="ime" style="ellipse;whiteSpace=wrap;html=1;align=center;" parent="1" vertex="1">
          <mxGeometry y="310" width="100" height="40" as="geometry" />
        </mxCell>
        <mxCell id="P_wVOb6cz1hJk3Y5YEZU-9" value="email" style="ellipse;whiteSpace=wrap;html=1;align=center;" parent="1" vertex="1">
          <mxGeometry x="-50" y="130" width="100" height="40" as="geometry" />
        </mxCell>
        <mxCell id="P_wVOb6cz1hJk3Y5YEZU-10" value="sifra" style="ellipse;whiteSpace=wrap;html=1;align=center;" parent="1" vertex="1">
          <mxGeometry x="80" y="100" width="100" height="40" as="geometry" />
        </mxCell>
        <mxCell id="P_wVOb6cz1hJk3Y5YEZU-12" value="BLOG PLATFORMA" style="text;html=1;align=center;verticalAlign=middle;resizable=0;points=[];autosize=1;strokeColor=none;fillColor=none;" parent="1" vertex="1">
          <mxGeometry x="360" y="40" width="130" height="30" as="geometry" />
        </mxCell>
        <mxCell id="P_wVOb6cz1hJk3Y5YEZU-13" value="Kategorija" style="whiteSpace=wrap;html=1;align=center;" parent="1" vertex="1">
          <mxGeometry x="770" y="550" width="100" height="40" as="geometry" />
        </mxCell>
        <mxCell id="P_wVOb6cz1hJk3Y5YEZU-16" value="" style="endArrow=none;html=1;rounded=0;entryX=1;entryY=0;entryDx=0;entryDy=0;exitX=0.029;exitY=0.743;exitDx=0;exitDy=0;exitPerimeter=0;" parent="1" source="P_wVOb6cz1hJk3Y5YEZU-18" target="P_wVOb6cz1hJk3Y5YEZU-3" edge="1">
          <mxGeometry relative="1" as="geometry">
            <mxPoint x="900" y="170" as="sourcePoint" />
            <mxPoint x="490" y="270" as="targetPoint" />
          </mxGeometry>
        </mxCell>
        <mxCell id="P_wVOb6cz1hJk3Y5YEZU-18" value="id" style="ellipse;whiteSpace=wrap;html=1;align=center;fontStyle=4;" parent="1" vertex="1">
          <mxGeometry x="880" y="150" width="100" height="40" as="geometry" />
        </mxCell>
        <mxCell id="P_wVOb6cz1hJk3Y5YEZU-19" value="naslov" style="ellipse;whiteSpace=wrap;html=1;align=center;" parent="1" vertex="1">
          <mxGeometry x="900" y="210" width="100" height="40" as="geometry" />
        </mxCell>
        <mxCell id="P_wVOb6cz1hJk3Y5YEZU-20" value="" style="endArrow=none;html=1;rounded=0;entryX=0;entryY=0.5;entryDx=0;entryDy=0;exitX=1;exitY=0.75;exitDx=0;exitDy=0;" parent="1" source="P_wVOb6cz1hJk3Y5YEZU-3" target="P_wVOb6cz1hJk3Y5YEZU-19" edge="1">
          <mxGeometry relative="1" as="geometry">
            <mxPoint x="330" y="270" as="sourcePoint" />
            <mxPoint x="490" y="270" as="targetPoint" />
          </mxGeometry>
        </mxCell>
        <mxCell id="P_wVOb6cz1hJk3Y5YEZU-21" value="" style="endArrow=none;html=1;rounded=0;entryX=1;entryY=1;entryDx=0;entryDy=0;exitX=0;exitY=0;exitDx=0;exitDy=0;" parent="1" source="P_wVOb6cz1hJk3Y5YEZU-22" target="P_wVOb6cz1hJk3Y5YEZU-3" edge="1">
          <mxGeometry relative="1" as="geometry">
            <mxPoint x="900" y="310" as="sourcePoint" />
            <mxPoint x="490" y="270" as="targetPoint" />
          </mxGeometry>
        </mxCell>
        <mxCell id="P_wVOb6cz1hJk3Y5YEZU-22" value="sadrzaj" style="ellipse;whiteSpace=wrap;html=1;align=center;" parent="1" vertex="1">
          <mxGeometry x="900" y="290" width="100" height="40" as="geometry" />
        </mxCell>
        <mxCell id="P_wVOb6cz1hJk3Y5YEZU-24" value="" style="endArrow=none;html=1;rounded=0;exitX=0.5;exitY=1;exitDx=0;exitDy=0;entryX=0.5;entryY=0;entryDx=0;entryDy=0;" parent="1" source="P_wVOb6cz1hJk3Y5YEZU-10" target="P_wVOb6cz1hJk3Y5YEZU-1" edge="1">
          <mxGeometry relative="1" as="geometry">
            <mxPoint x="330" y="270" as="sourcePoint" />
            <mxPoint x="490" y="270" as="targetPoint" />
          </mxGeometry>
        </mxCell>
        <mxCell id="P_wVOb6cz1hJk3Y5YEZU-25" value="" style="endArrow=none;html=1;rounded=0;exitX=1;exitY=1;exitDx=0;exitDy=0;entryX=0;entryY=0;entryDx=0;entryDy=0;" parent="1" source="P_wVOb6cz1hJk3Y5YEZU-9" target="P_wVOb6cz1hJk3Y5YEZU-1" edge="1">
          <mxGeometry relative="1" as="geometry">
            <mxPoint x="330" y="270" as="sourcePoint" />
            <mxPoint x="490" y="270" as="targetPoint" />
          </mxGeometry>
        </mxCell>
        <mxCell id="P_wVOb6cz1hJk3Y5YEZU-26" value="" style="endArrow=none;html=1;rounded=0;entryX=0.5;entryY=1;entryDx=0;entryDy=0;exitX=0.401;exitY=0.029;exitDx=0;exitDy=0;exitPerimeter=0;" parent="1" source="P_wVOb6cz1hJk3Y5YEZU-27" target="P_wVOb6cz1hJk3Y5YEZU-3" edge="1">
          <mxGeometry relative="1" as="geometry">
            <mxPoint x="840" y="310" as="sourcePoint" />
            <mxPoint x="490" y="270" as="targetPoint" />
          </mxGeometry>
        </mxCell>
        <mxCell id="P_wVOb6cz1hJk3Y5YEZU-27" value="datum kreiranja" style="ellipse;whiteSpace=wrap;html=1;align=center;" parent="1" vertex="1">
          <mxGeometry x="790" y="310" width="100" height="40" as="geometry" />
        </mxCell>
        <mxCell id="P_wVOb6cz1hJk3Y5YEZU-28" value="" style="endArrow=none;html=1;rounded=0;entryX=0.5;entryY=0;entryDx=0;entryDy=0;exitX=0.5;exitY=1;exitDx=0;exitDy=0;" parent="1" source="P_wVOb6cz1hJk3Y5YEZU-29" target="P_wVOb6cz1hJk3Y5YEZU-3" edge="1">
          <mxGeometry relative="1" as="geometry">
            <mxPoint x="800" y="120" as="sourcePoint" />
            <mxPoint x="490" y="270" as="targetPoint" />
          </mxGeometry>
        </mxCell>
        <mxCell id="P_wVOb6cz1hJk3Y5YEZU-29" value="autor_id" style="ellipse;whiteSpace=wrap;html=1;align=center;" parent="1" vertex="1">
          <mxGeometry x="750" y="90" width="100" height="40" as="geometry" />
        </mxCell>
        <mxCell id="P_wVOb6cz1hJk3Y5YEZU-30" value="" style="endArrow=none;html=1;rounded=0;exitX=0.25;exitY=0;exitDx=0;exitDy=0;entryX=1;entryY=1;entryDx=0;entryDy=0;" parent="1" source="P_wVOb6cz1hJk3Y5YEZU-2" target="P_wVOb6cz1hJk3Y5YEZU-32" edge="1">
          <mxGeometry relative="1" as="geometry">
            <mxPoint x="330" y="270" as="sourcePoint" />
            <mxPoint x="117.95329654231455" y="456.5824640505257" as="targetPoint" />
          </mxGeometry>
        </mxCell>
        <mxCell id="P_wVOb6cz1hJk3Y5YEZU-32" value="id" style="ellipse;whiteSpace=wrap;html=1;align=center;fontStyle=4;" parent="1" vertex="1">
          <mxGeometry x="10" y="410" width="100" height="40" as="geometry" />
        </mxCell>
        <mxCell id="P_wVOb6cz1hJk3Y5YEZU-34" value="sadrzaj" style="ellipse;whiteSpace=wrap;html=1;align=center;" parent="1" vertex="1">
          <mxGeometry x="-40" y="480" width="100" height="40" as="geometry" />
        </mxCell>
        <mxCell id="P_wVOb6cz1hJk3Y5YEZU-35" value="datum" style="ellipse;whiteSpace=wrap;html=1;align=center;" parent="1" vertex="1">
          <mxGeometry y="580" width="100" height="40" as="geometry" />
        </mxCell>
        <mxCell id="P_wVOb6cz1hJk3Y5YEZU-36" value="" style="endArrow=none;html=1;rounded=0;exitX=1;exitY=0;exitDx=0;exitDy=0;entryX=0;entryY=1;entryDx=0;entryDy=0;" parent="1" source="P_wVOb6cz1hJk3Y5YEZU-35" target="P_wVOb6cz1hJk3Y5YEZU-2" edge="1">
          <mxGeometry relative="1" as="geometry">
            <mxPoint x="330" y="440" as="sourcePoint" />
            <mxPoint x="490" y="440" as="targetPoint" />
          </mxGeometry>
        </mxCell>
        <mxCell id="P_wVOb6cz1hJk3Y5YEZU-37" value="" style="endArrow=none;html=1;rounded=0;exitX=1;exitY=0.5;exitDx=0;exitDy=0;entryX=0;entryY=0.5;entryDx=0;entryDy=0;" parent="1" source="P_wVOb6cz1hJk3Y5YEZU-34" target="P_wVOb6cz1hJk3Y5YEZU-2" edge="1">
          <mxGeometry relative="1" as="geometry">
            <mxPoint x="330" y="440" as="sourcePoint" />
            <mxPoint x="490" y="440" as="targetPoint" />
          </mxGeometry>
        </mxCell>
        <mxCell id="P_wVOb6cz1hJk3Y5YEZU-38" value="" style="endArrow=none;html=1;rounded=0;exitX=0.5;exitY=0;exitDx=0;exitDy=0;" parent="1" source="P_wVOb6cz1hJk3Y5YEZU-2" target="P_wVOb6cz1hJk3Y5YEZU-39" edge="1">
          <mxGeometry relative="1" as="geometry">
            <mxPoint x="330" y="440" as="sourcePoint" />
            <mxPoint x="200" y="420" as="targetPoint" />
          </mxGeometry>
        </mxCell>
        <mxCell id="P_wVOb6cz1hJk3Y5YEZU-39" value="korisnik_id" style="ellipse;whiteSpace=wrap;html=1;align=center;" parent="1" vertex="1">
          <mxGeometry x="290" y="420" width="100" height="40" as="geometry" />
        </mxCell>
        <mxCell id="P_wVOb6cz1hJk3Y5YEZU-40" value="" style="endArrow=none;html=1;rounded=0;exitX=0.5;exitY=1;exitDx=0;exitDy=0;" parent="1" source="P_wVOb6cz1hJk3Y5YEZU-2" target="P_wVOb6cz1hJk3Y5YEZU-41" edge="1">
          <mxGeometry relative="1" as="geometry">
            <mxPoint x="330" y="440" as="sourcePoint" />
            <mxPoint x="200" y="580" as="targetPoint" />
          </mxGeometry>
        </mxCell>
        <mxCell id="P_wVOb6cz1hJk3Y5YEZU-41" value="blogpost_id" style="ellipse;whiteSpace=wrap;html=1;align=center;" parent="1" vertex="1">
          <mxGeometry x="150" y="580" width="100" height="40" as="geometry" />
        </mxCell>
        <mxCell id="P_wVOb6cz1hJk3Y5YEZU-42" value="" style="endArrow=none;html=1;rounded=0;entryX=0.5;entryY=0;entryDx=0;entryDy=0;exitX=0;exitY=1;exitDx=0;exitDy=0;" parent="1" source="P_wVOb6cz1hJk3Y5YEZU-45" target="P_wVOb6cz1hJk3Y5YEZU-13" edge="1">
          <mxGeometry relative="1" as="geometry">
            <mxPoint x="870" y="420" as="sourcePoint" />
            <mxPoint x="490" y="440" as="targetPoint" />
          </mxGeometry>
        </mxCell>
        <mxCell id="P_wVOb6cz1hJk3Y5YEZU-43" value="" style="endArrow=none;html=1;rounded=0;entryX=0.5;entryY=1;entryDx=0;entryDy=0;exitX=0;exitY=0.5;exitDx=0;exitDy=0;" parent="1" source="P_wVOb6cz1hJk3Y5YEZU-46" target="P_wVOb6cz1hJk3Y5YEZU-13" edge="1">
          <mxGeometry relative="1" as="geometry">
            <mxPoint x="870" y="560" as="sourcePoint" />
            <mxPoint x="490" y="440" as="targetPoint" />
          </mxGeometry>
        </mxCell>
        <mxCell id="P_wVOb6cz1hJk3Y5YEZU-45" value="id" style="ellipse;whiteSpace=wrap;html=1;align=center;fontStyle=4;" parent="1" vertex="1">
          <mxGeometry x="910" y="490" width="100" height="40" as="geometry" />
        </mxCell>
        <mxCell id="P_wVOb6cz1hJk3Y5YEZU-46" value="naziv" style="ellipse;whiteSpace=wrap;html=1;align=center;" parent="1" vertex="1">
          <mxGeometry x="910" y="600" width="100" height="40" as="geometry" />
        </mxCell>
        <mxCell id="P_wVOb6cz1hJk3Y5YEZU-49" value="" style="endArrow=none;html=1;rounded=0;entryX=0;entryY=1;entryDx=0;entryDy=0;exitX=1;exitY=1;exitDx=0;exitDy=0;" parent="1" source="P_wVOb6cz1hJk3Y5YEZU-65" target="P_wVOb6cz1hJk3Y5YEZU-51" edge="1">
          <mxGeometry relative="1" as="geometry">
            <mxPoint x="530" y="729.9999999999998" as="sourcePoint" />
            <mxPoint x="613.3603254186855" y="713.6090219873456" as="targetPoint" />
          </mxGeometry>
        </mxCell>
        <mxCell id="P_wVOb6cz1hJk3Y5YEZU-50" value="" style="endArrow=none;html=1;rounded=0;entryX=0.182;entryY=1.031;entryDx=0;entryDy=0;exitX=0;exitY=0;exitDx=0;exitDy=0;entryPerimeter=0;" parent="1" source="P_wVOb6cz1hJk3Y5YEZU-52" target="P_wVOb6cz1hJk3Y5YEZU-65" edge="1">
          <mxGeometry relative="1" as="geometry">
            <mxPoint x="614.644660940673" y="805.8578643762692" as="sourcePoint" />
            <mxPoint x="530" y="759.9999999999998" as="targetPoint" />
          </mxGeometry>
        </mxCell>
        <mxCell id="P_wVOb6cz1hJk3Y5YEZU-51" value="korisnik_id" style="ellipse;whiteSpace=wrap;html=1;align=center;" parent="1" vertex="1">
          <mxGeometry x="560" y="630" width="100" height="40" as="geometry" />
        </mxCell>
        <mxCell id="P_wVOb6cz1hJk3Y5YEZU-52" value="blogpost_id" style="ellipse;whiteSpace=wrap;html=1;align=center;" parent="1" vertex="1">
          <mxGeometry x="410" y="630" width="100" height="40" as="geometry" />
        </mxCell>
        <mxCell id="P_wVOb6cz1hJk3Y5YEZU-53" value="(1,N)" style="endArrow=none;html=1;rounded=0;entryX=1;entryY=0.5;entryDx=0;entryDy=0;exitX=0;exitY=0.5;exitDx=0;exitDy=0;" parent="1" source="P_wVOb6cz1hJk3Y5YEZU-54" target="P_wVOb6cz1hJk3Y5YEZU-1" edge="1">
          <mxGeometry relative="1" as="geometry">
            <mxPoint x="400" y="230" as="sourcePoint" />
            <mxPoint x="490" y="330" as="targetPoint" />
            <Array as="points" />
          </mxGeometry>
        </mxCell>
        <mxCell id="P_wVOb6cz1hJk3Y5YEZU-54" value="pise" style="shape=rhombus;perimeter=rhombusPerimeter;whiteSpace=wrap;html=1;align=center;" parent="1" vertex="1">
          <mxGeometry x="400" y="200" width="120" height="60" as="geometry" />
        </mxCell>
        <mxCell id="P_wVOb6cz1hJk3Y5YEZU-55" value="(1,1)" style="endArrow=none;html=1;rounded=0;entryX=0;entryY=0.5;entryDx=0;entryDy=0;exitX=1;exitY=0.5;exitDx=0;exitDy=0;" parent="1" source="P_wVOb6cz1hJk3Y5YEZU-54" target="P_wVOb6cz1hJk3Y5YEZU-3" edge="1">
          <mxGeometry relative="1" as="geometry">
            <mxPoint x="330" y="330" as="sourcePoint" />
            <mxPoint x="490" y="330" as="targetPoint" />
          </mxGeometry>
        </mxCell>
        <mxCell id="P_wVOb6cz1hJk3Y5YEZU-56" value="(1,N)" style="endArrow=none;html=1;rounded=0;entryX=0.6;entryY=1;entryDx=0;entryDy=0;entryPerimeter=0;exitX=0.5;exitY=0;exitDx=0;exitDy=0;" parent="1" source="P_wVOb6cz1hJk3Y5YEZU-57" target="P_wVOb6cz1hJk3Y5YEZU-1" edge="1">
          <mxGeometry relative="1" as="geometry">
            <mxPoint x="210" y="340" as="sourcePoint" />
            <mxPoint x="530" y="430" as="targetPoint" />
          </mxGeometry>
        </mxCell>
        <mxCell id="P_wVOb6cz1hJk3Y5YEZU-57" value="ostavlja" style="shape=rhombus;perimeter=rhombusPerimeter;whiteSpace=wrap;html=1;align=center;" parent="1" vertex="1">
          <mxGeometry x="150" y="340" width="120" height="60" as="geometry" />
        </mxCell>
        <mxCell id="P_wVOb6cz1hJk3Y5YEZU-58" value="(1,1)" style="endArrow=none;html=1;rounded=0;entryX=0.5;entryY=1;entryDx=0;entryDy=0;exitX=0.41;exitY=0;exitDx=0;exitDy=0;exitPerimeter=0;" parent="1" source="P_wVOb6cz1hJk3Y5YEZU-2" target="P_wVOb6cz1hJk3Y5YEZU-57" edge="1">
          <mxGeometry relative="1" as="geometry">
            <mxPoint x="370" y="430" as="sourcePoint" />
            <mxPoint x="530" y="430" as="targetPoint" />
          </mxGeometry>
        </mxCell>
        <mxCell id="P_wVOb6cz1hJk3Y5YEZU-59" value="(1,N)" style="endArrow=none;html=1;rounded=0;entryX=0;entryY=0.75;entryDx=0;entryDy=0;exitX=1;exitY=0.5;exitDx=0;exitDy=0;" parent="1" source="P_wVOb6cz1hJk3Y5YEZU-60" target="P_wVOb6cz1hJk3Y5YEZU-3" edge="1">
          <mxGeometry relative="1" as="geometry">
            <mxPoint x="570" y="430" as="sourcePoint" />
            <mxPoint x="530" y="390" as="targetPoint" />
          </mxGeometry>
        </mxCell>
        <mxCell id="P_wVOb6cz1hJk3Y5YEZU-60" value="ima" style="shape=rhombus;perimeter=rhombusPerimeter;whiteSpace=wrap;html=1;align=center;" parent="1" vertex="1">
          <mxGeometry x="500" y="410" width="80" height="40" as="geometry" />
        </mxCell>
        <mxCell id="P_wVOb6cz1hJk3Y5YEZU-61" value="(1,1)" style="endArrow=none;html=1;rounded=0;exitX=1;exitY=0.5;exitDx=0;exitDy=0;entryX=0;entryY=1;entryDx=0;entryDy=0;" parent="1" source="P_wVOb6cz1hJk3Y5YEZU-2" target="P_wVOb6cz1hJk3Y5YEZU-60" edge="1">
          <mxGeometry relative="1" as="geometry">
            <mxPoint x="370" y="390" as="sourcePoint" />
            <mxPoint x="530" y="390" as="targetPoint" />
          </mxGeometry>
        </mxCell>
        <mxCell id="P_wVOb6cz1hJk3Y5YEZU-62" value="pripada" style="shape=rhombus;perimeter=rhombusPerimeter;whiteSpace=wrap;html=1;align=center;" parent="1" vertex="1">
          <mxGeometry x="730" y="410" width="90" height="40" as="geometry" />
        </mxCell>
        <mxCell id="P_wVOb6cz1hJk3Y5YEZU-63" value="(M,N)" style="endArrow=none;html=1;rounded=0;entryX=0.25;entryY=1;entryDx=0;entryDy=0;exitX=0.5;exitY=0;exitDx=0;exitDy=0;" parent="1" source="P_wVOb6cz1hJk3Y5YEZU-62" target="P_wVOb6cz1hJk3Y5YEZU-3" edge="1">
          <mxGeometry relative="1" as="geometry">
            <mxPoint x="370" y="390" as="sourcePoint" />
            <mxPoint x="530" y="390" as="targetPoint" />
          </mxGeometry>
        </mxCell>
        <mxCell id="P_wVOb6cz1hJk3Y5YEZU-64" value="(M,N)" style="endArrow=none;html=1;rounded=0;entryX=0.25;entryY=0;entryDx=0;entryDy=0;exitX=0.5;exitY=1;exitDx=0;exitDy=0;" parent="1" source="P_wVOb6cz1hJk3Y5YEZU-62" target="P_wVOb6cz1hJk3Y5YEZU-13" edge="1">
          <mxGeometry relative="1" as="geometry">
            <mxPoint x="370" y="390" as="sourcePoint" />
            <mxPoint x="530" y="390" as="targetPoint" />
          </mxGeometry>
        </mxCell>
        <mxCell id="P_wVOb6cz1hJk3Y5YEZU-65" value="lajkovanje" style="shape=associativeEntity;whiteSpace=wrap;html=1;align=center;" parent="1" vertex="1">
          <mxGeometry x="450" y="510" width="140" height="60" as="geometry" />
        </mxCell>
        <mxCell id="P_wVOb6cz1hJk3Y5YEZU-67" value="(M,N)" style="endArrow=none;html=1;rounded=0;exitX=1;exitY=1;exitDx=0;exitDy=0;entryX=0.25;entryY=0;entryDx=0;entryDy=0;" parent="1" source="P_wVOb6cz1hJk3Y5YEZU-1" target="P_wVOb6cz1hJk3Y5YEZU-65" edge="1">
          <mxGeometry relative="1" as="geometry">
            <mxPoint x="370" y="500" as="sourcePoint" />
            <mxPoint x="530" y="500" as="targetPoint" />
            <Array as="points">
              <mxPoint x="370" y="370" />
            </Array>
          </mxGeometry>
        </mxCell>
        <mxCell id="P_wVOb6cz1hJk3Y5YEZU-68" value="(M,N)" style="endArrow=none;html=1;rounded=0;entryX=0.25;entryY=1;entryDx=0;entryDy=0;exitX=1;exitY=0;exitDx=0;exitDy=0;" parent="1" source="P_wVOb6cz1hJk3Y5YEZU-65" target="P_wVOb6cz1hJk3Y5YEZU-3" edge="1">
          <mxGeometry relative="1" as="geometry">
            <mxPoint x="370" y="500" as="sourcePoint" />
            <mxPoint x="530" y="500" as="targetPoint" />
          </mxGeometry>
        </mxCell>
      </root>
    </mxGraphModel>
  </diagram>
</mxfile>
